<svg width="50" height="50" viewBox="0 0 50 50" fill="none" xmlns="http://www.w3.org/2000/svg">
<path d="M39.5998 7.29995H34.3998V4.19995C34.3998 3.59995 33.9998 3.19995 33.3998 3.19995C32.7998 3.19995 32.3998 3.59995 32.3998 4.19995V7.39995H17.6998V4.19995C17.6998 3.59995 17.2998 3.19995 16.6998 3.19995C16.0998 3.19995 15.6998 3.59995 15.6998 4.19995V7.39995H10.4998C7.6998 7.39995 5.2998 9.69995 5.2998 12.6V41.7999C5.2998 44.5999 7.5998 47 10.4998 47H39.6998C42.4998 47 44.8998 44.7 44.8998 41.7999V12.5C44.7998 9.69995 42.3998 7.29995 39.5998 7.29995ZM10.3998 9.29995H15.5998V12.5C15.5998 13.1 15.9998 13.5 16.5998 13.5C17.1998 13.5 17.5998 13.1 17.5998 12.5V9.29995H32.2998V12.5C32.2998 13.1 32.6998 13.5 33.2998 13.5C33.8998 13.5 34.2998 13.1 34.2998 12.5V9.29995H39.4998C41.1998 9.29995 42.6998 10.7 42.6998 12.5V19.7999H7.1998V12.5C7.1998 10.8 8.6998 9.29995 10.3998 9.29995ZM39.5998 44.7999H10.3998C8.6998 44.7999 7.1998 43.3999 7.1998 41.5999V21.7999H42.6998V41.5999C42.7998 43.3999 41.2998 44.7999 39.5998 44.7999Z" fill="white"/>
<path d="M36.2998 26.3L21.8998 37.6L13.9998 29.8C13.5998 29.4 12.9998 29.4 12.5998 29.8C12.1998 30.2 12.1998 30.8 12.5998 31.2L21.0998 39.7C21.2998 39.9 21.5998 40 21.7998 40C21.9998 40 22.1998 39.9 22.3998 39.8L37.4998 27.9C37.8998 27.6 37.9998 26.9 37.6998 26.5C37.2998 26 36.6998 26 36.2998 26.3Z" fill="white"/>
</svg>
