<svg width="288" height="246" viewBox="0 0 288 246" fill="none" xmlns="http://www.w3.org/2000/svg">
<g clip-path="url(#clip0_223_2394)">
<path d="M0 203.062H288V203.206H0V203.062Z" fill="#E7E8E5"/>
<path d="M240.065 212.345H259.142V212.489H240.065V212.345Z" fill="#E7E8E5"/>
<path d="M185.777 213.915H190.783V214.059H185.777V213.915Z" fill="#E7E8E5"/>
<path d="M228.436 206.991H239.489V207.135H228.436V206.991Z" fill="#E7E8E5"/>
<path d="M30.2171 207.96H55.0944V208.104H30.2171V207.96Z" fill="#E7E8E5"/>
<path d="M60.2266 207.96H63.8726V208.104H60.2266V207.96Z" fill="#E7E8E5"/>
<path d="M75.7267 210.395H129.686V210.539H75.7267V210.395Z" fill="#E7E8E5"/>
<path d="M25.2923 14.2793C23.5575 14.2822 22.1529 15.6917 22.1529 17.4295V174.035C22.1529 175.772 23.5575 177.182 25.2923 177.185H136.512C138.247 177.182 139.654 175.773 139.657 174.035V17.4295C139.654 15.6911 138.247 14.2822 136.512 14.2793H25.2923ZM136.512 177.329H25.2923C23.4779 177.326 22.0089 175.852 22.0089 174.035V17.4295C22.0248 15.6236 23.4891 14.1668 25.2923 14.1639H136.512C138.328 14.1639 139.801 15.6392 139.801 17.4584V174.035C139.801 175.854 138.328 177.329 136.512 177.329Z" fill="#E7E8E5"/>
<path d="M149.881 14.2793C148.145 14.2822 146.739 15.6911 146.736 17.4295V174.035C146.739 175.773 148.145 177.182 149.881 177.185H261.107C262.842 177.182 264.249 175.773 264.251 174.035V17.4295C264.249 15.6911 262.842 14.2822 261.107 14.2793H149.881ZM261.107 177.329H149.881C148.066 177.326 146.595 175.853 146.592 174.035V17.4295C146.611 15.6225 148.077 14.1668 149.881 14.1639H261.107C262.908 14.1697 264.368 15.6254 264.384 17.4295V174.035C264.384 175.849 262.919 177.323 261.107 177.329Z" fill="#E7E8E5"/>
<path d="M67.7848 200.085H58.3257V147.19H67.7848V200.085Z" fill="#EDEDEB"/>
<path d="M123.275 202.958H58.3257V200.085H123.275V202.958Z" fill="#EDEDEB"/>
<path d="M67.0239 200.085H123.275V147.19H67.0239V200.085Z" fill="#F3F2F1"/>
<path d="M70.7397 171.419H119.554V152.773H70.7397V171.419Z" fill="#EDEDEB"/>
<path d="M70.7397 194.502H119.554V175.856H70.7397V194.502Z" fill="#EDEDEB"/>
<path d="M106.701 158.61H83.6024C83.1398 158.61 82.7654 158.234 82.7654 157.771V157.408C82.7654 156.945 83.1398 156.569 83.6024 156.569H106.701C107.164 156.569 107.539 156.945 107.539 157.408V157.771C107.539 158.234 107.164 158.61 106.701 158.61Z" fill="#F3F2F1"/>
<path d="M106.701 181.697H83.6024C83.1398 181.697 82.7654 181.322 82.7654 180.859V180.497C82.7654 180.033 83.1398 179.658 83.6024 179.658H106.701C107.164 179.658 107.539 180.033 107.539 180.497V180.859C107.539 181.322 107.164 181.697 106.701 181.697Z" fill="#F3F2F1"/>
<path d="M117.186 116.713H251.789V39.4701H117.186V116.713Z" fill="#E2E2E0"/>
<path d="M118.123 116.713H253.79V39.4701H118.123V116.713Z" fill="#EDEDEB"/>
<path d="M120.926 113.557H250.992V42.6215H120.926V113.557Z" fill="#FAFAF9"/>
<path d="M136.886 113.557L153.338 42.6215H174.899L158.454 113.557H136.886Z" fill="white"/>
<path d="M161.941 113.557L178.388 42.6215H188.126L171.679 113.557H161.941Z" fill="white"/>
<path d="M200.581 113.557L217.028 42.6215H233.662L217.215 113.557H200.581Z" fill="white"/>
<path d="M250.987 42.6215V113.557H250.628V42.6215H250.987Z" fill="#E2E2E0"/>
<path d="M181.914 116.713H189.998V39.4701H181.914V116.713Z" fill="#EDEDEB"/>
<path d="M181.556 113.557H181.914V42.6215H181.556V113.557Z" fill="#E2E2E0"/>
<path d="M185.815 116.713H186.098V39.4701H185.815V116.713Z" fill="#E2E2E0"/>
<path d="M44.1704 40.7152H79.9493V95.6617H44.1704V40.7152Z" fill="#E2E2E0"/>
<path d="M45.0038 40.7152H82.9797V95.6617H45.0038V40.7152Z" fill="#F3F2F1"/>
<path d="M80.5536 43.1407V93.2362H47.4201V43.1407H80.5536Z" fill="white"/>
<path d="M74.5736 80.4466H53.4001V51.3728H74.5736V80.4466Z" fill="#F3F2F1"/>
<path d="M44.7624 82.4678C44.9239 81.7171 45.0956 80.97 45.2772 80.2268C45.315 80.0722 45.2202 79.9158 45.0657 79.8783C44.9113 79.8403 44.7554 79.9355 44.7176 80.0901C44.5349 80.8384 44.3621 81.5902 44.1992 82.3466C44.1657 82.5024 44.2644 82.6558 44.4202 82.6893C44.5756 82.7228 44.7289 82.6235 44.7624 82.4678ZM45.853 78.0009C46.0561 77.2578 46.269 76.5193 46.4917 75.7848C46.5378 75.6319 46.4521 75.4709 46.2998 75.4248C46.1477 75.3786 45.9868 75.4646 45.9405 75.6169C45.7164 76.3566 45.502 77.1003 45.2974 77.8486C45.2554 78.0021 45.3458 78.1607 45.4993 78.2028C45.6525 78.245 45.8109 78.1544 45.853 78.0009ZM47.1908 73.5871C47.4343 72.8567 47.6874 72.1315 47.95 71.4102C48.0044 71.2602 47.9274 71.0947 47.778 71.0404C47.6287 70.9856 47.4633 71.0629 47.4088 71.2124C47.1444 71.9382 46.8895 72.6692 46.6445 73.4042C46.5941 73.5554 46.6756 73.7187 46.8265 73.7694C46.9773 73.8196 47.1404 73.7383 47.1908 73.5871ZM48.7683 69.2553C49.0509 68.5404 49.3434 67.8302 49.6449 67.1246C49.7076 66.978 49.6399 66.8084 49.4937 66.7455C49.3475 66.6832 49.178 66.7507 49.1154 66.8972C48.8117 67.6075 48.5174 68.3229 48.2325 69.043C48.174 69.1912 48.2465 69.3586 48.3943 69.4174C48.5421 69.4763 48.7095 69.4036 48.7683 69.2553ZM50.5795 65.0186C50.9008 64.3205 51.2316 63.6276 51.5713 62.9404C51.6418 62.7973 51.5835 62.6242 51.4408 62.5539C51.2982 62.4829 51.1256 62.5417 51.0549 62.6843C50.713 63.3766 50.3802 64.0742 50.0564 64.7775C49.99 64.9217 50.0531 65.0936 50.1975 65.16C50.3419 65.2269 50.5129 65.1635 50.5795 65.0186ZM52.6191 60.8899C52.9778 60.2108 53.3457 59.5369 53.7223 58.8694C53.8004 58.7303 53.7516 58.5543 53.6132 58.4759C53.4746 58.398 53.2989 58.4465 53.2208 58.5855C52.8415 59.2577 52.4713 59.9362 52.11 60.6199C52.0357 60.7607 52.0893 60.9355 52.2299 61.0099C52.3703 61.0843 52.5447 61.0307 52.6191 60.8899ZM54.8799 56.8794C55.2751 56.2217 55.6787 55.5691 56.0909 54.9229C56.1766 54.7885 56.1375 54.6102 56.0034 54.5243C55.8693 54.4389 55.6913 54.4781 55.6056 54.6125C55.1905 55.2628 54.7839 55.9199 54.3863 56.5823C54.3042 56.719 54.3483 56.8962 54.4846 56.9787C54.621 57.0606 54.7979 57.0162 54.8799 56.8794ZM57.3545 53.0005C57.7843 52.3647 58.2226 51.7358 58.6696 51.1132C58.7623 50.9834 58.733 50.8034 58.6039 50.7099C58.4743 50.6176 58.2946 50.6471 58.2019 50.7763C57.752 51.4035 57.3107 52.037 56.8777 52.6762C56.7884 52.8084 56.8228 52.9878 56.9547 53.0772C57.0861 53.1667 57.2654 53.132 57.3545 53.0005ZM60.0353 49.2624C60.4984 48.6519 60.9702 48.0473 61.45 47.4495C61.5496 47.3255 61.53 47.1437 61.4062 47.0439C61.2818 46.9441 61.1009 46.9643 61.0013 47.0883C60.518 47.6895 60.0434 48.2982 59.5768 48.9133C59.48 49.0402 59.5048 49.2208 59.6315 49.3172C59.7583 49.4141 59.9391 49.3893 60.0353 49.2624ZM62.913 45.6759C63.4089 45.092 63.9124 44.5139 64.4233 43.9433C64.5298 43.825 64.52 43.6427 64.4014 43.536C64.2833 43.4298 64.1013 43.4396 63.9947 43.5585C63.4804 44.1326 62.9735 44.7141 62.4741 45.3026C62.371 45.4244 62.386 45.6061 62.5075 45.7094C62.6285 45.8127 62.8105 45.7977 62.913 45.6759ZM65.9796 42.2522C66.5061 41.6961 67.04 41.1468 67.5809 40.6044C67.6938 40.4919 67.6938 40.3096 67.5809 40.1965C67.4686 40.084 67.286 40.084 67.1737 40.1965C66.6288 40.7423 66.0914 41.2956 65.5614 41.8559C65.452 41.9713 65.4572 42.1542 65.573 42.2638C65.6882 42.3728 65.8702 42.3682 65.9796 42.2522ZM69.226 39.001C69.7812 38.4737 70.344 37.9539 70.9131 37.4421C71.0317 37.3359 71.0415 37.1536 70.935 37.0353C70.829 36.9165 70.6469 36.9067 70.5283 37.0128C69.9552 37.5286 69.389 38.0514 68.8297 38.5822C68.7145 38.6918 68.7093 38.8741 68.8187 38.9895C68.9282 39.1055 69.1102 39.1101 69.226 39.001ZM72.6416 35.9305C73.2246 35.4343 73.8138 34.9461 74.41 34.4661C74.5338 34.3663 74.5534 34.1845 74.4537 34.0605C74.3541 33.9359 74.1732 33.9163 74.0488 34.0161C73.4486 34.4996 72.8553 34.9911 72.2684 35.4908C72.1474 35.5935 72.1325 35.7758 72.2356 35.8976C72.3387 36.0187 72.5207 36.0337 72.6416 35.9305ZM76.2169 33.0502C76.8251 32.5869 77.4403 32.1311 78.0612 31.684C78.1902 31.5911 78.2196 31.4111 78.1269 31.2818C78.0342 31.152 77.8544 31.1226 77.7248 31.2155C77.0999 31.6661 76.4807 32.1242 75.8684 32.591C75.7417 32.6873 75.7169 32.8685 75.8137 32.9954C75.9099 33.1218 76.0902 33.1466 76.2169 33.0502ZM79.9413 30.3691C80.5737 29.9393 81.2119 29.5181 81.8559 29.1055C81.9901 29.0196 82.0293 28.8413 81.9435 28.7074C81.8582 28.573 81.6797 28.5338 81.546 28.6197C80.8974 29.0352 80.2546 29.4592 79.6182 29.8914C79.4862 29.9808 79.4523 30.1602 79.5415 30.2924C79.6308 30.4239 79.81 30.4585 79.9413 30.3691ZM83.8039 27.8951C84.4583 27.5004 85.1184 27.1144 85.7837 26.7377C85.9225 26.6592 85.9709 26.4832 85.8925 26.3448C85.8148 26.2057 85.6391 26.1573 85.5003 26.2357C84.8304 26.6148 84.1657 27.0031 83.5073 27.4006C83.3708 27.4825 83.327 27.6597 83.4088 27.7964C83.4912 27.9332 83.668 27.977 83.8039 27.8951ZM87.7939 25.6351C88.4678 25.2774 89.1475 24.9283 89.8324 24.5885C89.9746 24.5175 90.0334 24.3444 89.9625 24.2019C89.8917 24.0588 89.7189 24.0006 89.5766 24.0715C88.8871 24.4137 88.2029 24.765 87.5238 25.1256C87.3832 25.2001 87.3296 25.3749 87.4045 25.5157C87.4788 25.6565 87.6534 25.7101 87.7939 25.6351ZM91.8985 23.5978C92.5908 23.2771 93.2878 22.9661 93.9899 22.6637C94.1362 22.6009 94.2036 22.4312 94.1408 22.2847C94.0781 22.1387 93.9087 22.0706 93.763 22.1335C93.0557 22.4381 92.3535 22.7509 91.6566 23.074C91.5126 23.1403 91.4492 23.3123 91.516 23.4571C91.5828 23.6013 91.7539 23.6642 91.8985 23.5978ZM96.1056 21.7879C96.8141 21.5058 97.5266 21.2334 98.2443 20.9704C98.3934 20.9155 98.4701 20.75 98.4153 20.5999C98.3606 20.4505 98.1953 20.3738 98.0461 20.4286C97.3238 20.6934 96.6061 20.9675 95.893 21.2519C95.745 21.3108 95.673 21.4781 95.7318 21.6264C95.7905 21.7746 95.9581 21.8468 96.1056 21.7879ZM100.403 20.2117C101.128 19.9682 101.856 19.7345 102.59 19.5106C102.742 19.4639 102.827 19.3029 102.781 19.15C102.734 18.9977 102.573 18.9123 102.421 18.9585C101.683 19.1841 100.949 19.4195 100.22 19.6647C100.069 19.7155 99.9878 19.8787 100.039 20.0299C100.089 20.1811 100.252 20.2624 100.403 20.2117ZM104.794 18.8691C105.53 18.666 106.271 18.4727 107.015 18.2892C107.169 18.2505 107.264 18.0948 107.226 17.9401C107.188 17.7849 107.032 17.6909 106.877 17.729C106.128 17.9136 105.383 18.1086 104.641 18.3129C104.488 18.3556 104.398 18.5142 104.44 18.6677C104.482 18.8217 104.641 18.9118 104.794 18.8691ZM109.252 17.7699C109.998 17.6072 110.747 17.4549 111.501 17.3124C111.658 17.2824 111.76 17.1318 111.731 16.9755C111.701 16.8185 111.55 16.7158 111.394 16.7452C110.636 16.8889 109.881 17.0424 109.129 17.2062C108.973 17.2403 108.875 17.3938 108.909 17.549C108.943 17.7047 109.096 17.8034 109.252 17.7699ZM113.762 16.9166C114.516 16.7949 115.273 16.6835 116.033 16.5825C116.191 16.5612 116.302 16.4164 116.281 16.2583C116.26 16.1002 116.115 15.9894 115.958 16.0102C115.192 16.1123 114.43 16.2243 113.671 16.3466C113.514 16.372 113.407 16.5197 113.432 16.6772C113.458 16.8347 113.606 16.9414 113.762 16.9166ZM118.313 16.3102C119.072 16.23 119.834 16.1602 120.599 16.1002C120.758 16.0881 120.876 15.949 120.864 15.7904C120.851 15.6311 120.713 15.5123 120.554 15.525C119.784 15.5855 119.017 15.6559 118.253 15.7367C118.094 15.7534 117.98 15.8954 117.996 16.0535C118.013 16.2121 118.155 16.327 118.313 16.3102ZM122.89 15.9525C123.652 15.9133 124.417 15.8844 125.184 15.866C125.343 15.8619 125.469 15.7298 125.465 15.5705C125.461 15.4113 125.33 15.285 125.171 15.289C124.398 15.3075 123.628 15.3369 122.861 15.3761C122.702 15.3842 122.58 15.5198 122.588 15.6784C122.596 15.8377 122.731 15.96 122.89 15.9525ZM127.48 15.8412C128.248 15.8429 129.014 15.8544 129.776 15.8763C129.935 15.881 130.068 15.7552 130.072 15.5959C130.077 15.4367 129.951 15.304 129.792 15.2994C129.025 15.2775 128.254 15.2659 127.481 15.2642C127.322 15.2636 127.193 15.3923 127.193 15.5515C127.192 15.7113 127.321 15.8406 127.48 15.8412ZM132.07 15.9715C132.837 16.0131 133.6 16.065 134.361 16.1267C134.519 16.14 134.658 16.0212 134.671 15.8625C134.684 15.7038 134.566 15.5648 134.407 15.5515C133.641 15.4898 132.873 15.4373 132.102 15.3951C131.943 15.3865 131.807 15.5088 131.798 15.6681C131.789 15.8267 131.911 15.9629 132.07 15.9715ZM136.647 16.3425C137.409 16.425 138.169 16.5168 138.926 16.6189C139.083 16.6402 139.228 16.5295 139.25 16.3714C139.271 16.2139 139.16 16.0685 139.003 16.0471C138.241 15.9444 137.476 15.8515 136.708 15.769C136.55 15.7517 136.408 15.8665 136.391 16.0246C136.374 16.1833 136.488 16.3252 136.647 16.3425ZM141.197 16.9558C141.954 17.0787 142.708 17.2114 143.458 17.354C143.614 17.3834 143.765 17.2807 143.794 17.1243C143.824 16.9674 143.722 16.8168 143.565 16.7868C142.81 16.6437 142.051 16.5098 141.289 16.3864C141.131 16.361 140.984 16.4677 140.959 16.6252C140.933 16.7822 141.04 16.9305 141.197 16.9558ZM145.708 17.8121C146.457 17.9759 147.203 18.1484 147.944 18.3313C148.099 18.3694 148.255 18.2748 148.293 18.1202C148.331 17.9655 148.236 17.8092 148.082 17.7711C147.335 17.587 146.584 17.4128 145.83 17.2484C145.675 17.2143 145.521 17.313 145.488 17.4688C145.454 17.6245 145.552 17.7786 145.708 17.8121ZM150.166 18.9106C150.906 19.1143 151.641 19.3277 152.372 19.5499C152.524 19.5966 152.684 19.5106 152.731 19.3583C152.777 19.206 152.691 19.0445 152.539 18.9983C151.803 18.7739 151.063 18.5592 150.319 18.3544C150.165 18.3123 150.007 18.4023 149.964 18.5558C149.922 18.7098 150.013 18.8685 150.166 18.9106ZM154.566 20.252C155.295 20.4961 156.019 20.75 156.739 21.0131C156.889 21.0679 157.054 20.9905 157.109 20.8411C157.163 20.6917 157.086 20.5255 156.937 20.4713C156.212 20.2065 155.483 19.9509 154.748 19.7045C154.597 19.6543 154.434 19.7356 154.384 19.8868C154.333 20.038 154.415 20.2013 154.566 20.252ZM158.891 21.8335C159.605 22.1174 160.315 22.4099 161.018 22.7128C161.165 22.7751 161.334 22.7076 161.397 22.561C161.46 22.4145 161.392 22.2449 161.245 22.1826C160.536 21.8779 159.822 21.5825 159.103 21.2975C158.955 21.2386 158.788 21.3108 158.729 21.459C158.671 21.6073 158.743 21.7746 158.891 21.8335ZM163.121 23.6498C163.818 23.9717 164.51 24.3029 165.197 24.6439C165.339 24.7143 165.512 24.656 165.583 24.5129C165.653 24.3704 165.595 24.1973 165.453 24.1263C164.761 23.7836 164.064 23.4501 163.362 23.1253C163.218 23.059 163.047 23.1219 162.98 23.2667C162.914 23.4115 162.977 23.5828 163.121 23.6498ZM167.244 25.6945C167.922 26.054 168.594 26.4232 169.261 26.8006C169.399 26.879 169.575 26.8306 169.653 26.6915C169.732 26.5531 169.683 26.3771 169.544 26.2986C168.873 25.9184 168.196 25.5468 167.513 25.1845C167.373 25.1101 167.198 25.1637 167.124 25.3039C167.05 25.4453 167.103 25.6195 167.244 25.6945ZM171.246 27.9626C171.903 28.359 172.554 28.764 173.199 29.1777C173.333 29.2636 173.511 29.2244 173.597 29.0905C173.682 28.9561 173.643 28.7778 173.51 28.6919C172.86 28.2753 172.205 27.8674 171.544 27.4681C171.407 27.3856 171.23 27.4295 171.148 27.5662C171.066 27.7029 171.11 27.8801 171.246 27.9626ZM175.117 30.4464C175.75 30.878 176.378 31.3188 176.998 31.7671C177.127 31.8605 177.308 31.8311 177.4 31.7025C177.494 31.5732 177.464 31.3926 177.335 31.2997C176.71 30.8474 176.079 30.4043 175.44 29.9693C175.309 29.8798 175.13 29.9139 175.041 30.0454C174.951 30.1775 174.985 30.357 175.117 30.4464ZM178.843 33.1397C179.452 33.6053 180.054 34.0796 180.649 34.5619C180.772 34.6617 180.953 34.6427 181.053 34.5186C181.154 34.3951 181.135 34.2134 181.011 34.113C180.412 33.6278 179.805 33.1501 179.192 32.681C179.066 32.5841 178.885 32.6083 178.789 32.7352C178.692 32.8616 178.717 33.0427 178.843 33.1397ZM182.414 36.0331C182.996 36.5316 183.571 37.0382 184.138 37.5523C184.256 37.6596 184.438 37.6504 184.545 37.5321C184.651 37.4138 184.643 37.2315 184.524 37.1248C183.953 36.6066 183.374 36.0966 182.788 35.5947C182.667 35.4908 182.486 35.5052 182.382 35.6264C182.279 35.7476 182.293 35.9293 182.414 36.0331ZM185.819 39.1188C186.372 39.6484 186.918 40.1856 187.456 40.7302C187.568 40.8433 187.75 40.8444 187.863 40.7325C187.976 40.6206 187.977 40.4377 187.865 40.3246C187.323 39.7759 186.774 39.2347 186.217 38.7016C186.102 38.5914 185.92 38.5954 185.81 38.7108C185.7 38.8256 185.704 39.0086 185.819 39.1188ZM189.047 42.3867C189.57 42.9457 190.085 43.5123 190.592 44.0858C190.698 44.2053 190.88 44.2162 190.999 44.1106C191.118 44.0051 191.129 43.8227 191.023 43.7033C190.513 43.1258 189.994 42.5551 189.468 41.992C189.359 41.8761 189.177 41.8697 189.061 41.9787C188.945 42.0878 188.939 42.2701 189.047 42.3867ZM192.09 45.8271C192.58 46.4139 193.062 47.0076 193.537 47.6088C193.636 47.7334 193.817 47.7547 193.942 47.6555C194.066 47.5568 194.088 47.3751 193.989 47.2505C193.511 46.6458 193.025 46.0475 192.531 45.4567C192.429 45.3344 192.247 45.3182 192.125 45.4209C192.003 45.523 191.987 45.7048 192.09 45.8271ZM194.936 49.4291C195.392 50.0418 195.842 50.6615 196.282 51.2875C196.374 51.4179 196.554 51.449 196.683 51.3573C196.813 51.2656 196.845 51.0855 196.753 50.9552C196.309 50.3251 195.857 49.7008 195.397 49.0841C195.301 48.9566 195.121 48.93 194.994 49.0258C194.867 49.121 194.84 49.3016 194.936 49.4291ZM197.577 53.1822C197.999 53.8192 198.413 54.4625 198.818 55.1116C198.903 55.2466 199.08 55.2876 199.215 55.2033C199.35 55.1191 199.39 54.9408 199.306 54.8058C198.899 54.1521 198.482 53.5042 198.056 52.8632C197.968 52.7305 197.79 52.6941 197.657 52.7824C197.525 52.8707 197.488 53.0495 197.577 53.1822ZM200.005 57.0744C200.392 57.7333 200.769 58.398 201.137 59.069C201.214 59.2086 201.389 59.2594 201.529 59.1827C201.668 59.1059 201.719 58.9305 201.642 58.7909C201.271 58.1153 200.891 57.446 200.502 56.7825C200.421 56.6452 200.245 56.599 200.108 56.6798C199.97 56.76 199.924 56.9371 200.005 57.0744ZM202.213 61.0936C202.562 61.7721 202.902 62.4569 203.233 63.1464C203.302 63.2901 203.474 63.3507 203.617 63.282C203.761 63.2128 203.821 63.0402 203.752 62.8966C203.419 62.2019 203.077 61.513 202.725 60.8293C202.653 60.688 202.479 60.632 202.338 60.7047C202.196 60.778 202.141 60.9516 202.213 61.0936ZM204.195 65.2264C204.506 65.9233 204.807 66.6249 205.099 67.3323C205.16 67.4794 205.328 67.5492 205.475 67.4881C205.623 67.4275 205.692 67.2584 205.631 67.1113C205.338 66.3993 205.034 65.6925 204.721 64.9915C204.656 64.8461 204.486 64.7804 204.341 64.8456C204.195 64.9108 204.13 65.081 204.195 65.2269V65.2264ZM205.948 69.4688C206.22 70.1831 206.483 70.9031 206.737 71.6278C206.789 71.7784 206.953 71.8574 207.104 71.8049C207.254 71.7518 207.333 71.5874 207.28 71.4368C207.025 70.7075 206.76 69.9828 206.486 69.2628C206.429 69.1139 206.263 69.0395 206.114 69.096C205.965 69.1532 205.891 69.3199 205.948 69.4688ZM207.466 73.8081C207.698 74.5368 207.921 75.2701 208.135 76.0075C208.178 76.161 208.339 76.2487 208.491 76.2048C208.644 76.1604 208.732 76.0006 208.688 75.8471C208.473 75.1045 208.249 74.366 208.014 73.6321C207.966 73.4804 207.804 73.3967 207.653 73.4452C207.501 73.4942 207.418 73.6564 207.466 73.8081ZM208.742 78.2236C208.816 78.5052 208.887 78.7873 208.958 79.0706C208.996 79.2252 209.152 79.3193 209.307 79.2806C209.461 79.2425 209.555 79.0856 209.517 78.931C209.446 78.6465 209.374 78.3621 209.3 78.0782C209.26 77.9242 209.102 77.8319 208.949 77.8717C208.795 77.9121 208.702 78.0696 208.742 78.2236Z" fill="#E2E2E0"/>
<path d="M44.4807 74.295C36.9879 74.2973 30.9175 80.3756 30.9175 87.8808C30.9175 90.5792 32.9938 94.5153 33.9563 96.1989C34.3755 96.9328 34.7753 97.6765 35.1585 98.43L37.8407 103.709C38.1771 104.372 38.8557 104.789 39.5975 104.789H44.4807H49.3641C50.1059 104.789 50.7845 104.372 51.1209 103.709L53.8031 98.43C54.186 97.6765 54.5861 96.9328 55.005 96.1989C55.9678 94.5153 58.0441 90.5792 58.0441 87.8808C58.0441 80.3756 51.9736 74.2973 44.4807 74.295Z" fill="#7444B4"/>
<path d="M41.8797 104.778C41.8792 104.772 41.7663 101.739 41.3244 98.6937C41.1028 97.1699 40.8009 95.6444 40.3796 94.4755C40.1681 93.8904 39.9285 93.3943 39.6358 93.0227C39.3473 92.6557 38.9749 92.3938 38.529 92.3932C38.4674 92.3932 38.4053 92.3984 38.3429 92.4088H38.3432C37.8718 92.4844 37.4872 92.6621 37.2159 92.9304C36.9441 93.1981 36.7994 93.5581 36.8012 93.9349C36.8096 94.7691 37.4319 95.6531 38.6066 96.3639C39.787 97.0735 41.5474 97.609 43.9351 97.688C44.0896 97.6926 44.2406 97.6955 44.3885 97.6955C46.5095 97.6955 47.9383 97.182 48.8435 96.4527C49.7486 95.724 50.1115 94.7865 50.1107 94.0006C50.11 93.5806 50.0101 93.2004 49.8208 92.905C49.6357 92.6119 49.3322 92.3926 48.9685 92.3932L48.9544 92.3938L48.9667 92.6817L48.9659 92.3932C48.7562 92.3944 48.558 92.4705 48.3755 92.59C48.0562 92.8 47.7644 93.1456 47.4847 93.6054C46.6542 94.9832 45.9517 97.4307 45.9493 100.424C45.9493 101.805 46.1009 103.3 46.4648 104.854C46.501 105.01 46.656 105.105 46.8108 105.069C46.9658 105.033 47.0619 104.878 47.0257 104.722C46.6724 103.214 46.5253 101.763 46.5253 100.424C46.5249 98.2154 46.9269 96.3114 47.4561 94.9774C47.7198 94.311 48.0166 93.7866 48.2976 93.445C48.4376 93.2737 48.573 93.149 48.69 93.0729C48.8077 92.9961 48.9017 92.9702 48.9677 92.9702H48.9791L48.9685 92.7244V92.9702H48.9791L48.9685 92.7244V92.9702C49.0939 92.9708 49.2174 93.0377 49.3371 93.2177C49.4525 93.3954 49.5353 93.6747 49.5347 94.0006C49.5338 94.6128 49.2559 95.3784 48.4821 96.0033C47.7084 96.6276 46.42 97.118 44.3885 97.1186C44.2472 97.1186 44.1023 97.1162 43.954 97.111C41.643 97.0355 39.9756 96.515 38.9032 95.8688C37.8248 95.2238 37.3687 94.453 37.3772 93.9349C37.379 93.6977 37.4569 93.5062 37.6213 93.3406C37.7863 93.1767 38.0516 93.04 38.4348 92.9783H38.4349L38.529 92.9702C38.7355 92.9702 38.9486 93.0867 39.1844 93.3816C39.5933 93.891 39.9623 94.8822 40.2455 96.0581C40.6755 97.8253 40.9419 100.016 41.0988 101.76C41.1773 102.631 41.2285 103.392 41.2603 103.935C41.292 104.477 41.3039 104.799 41.3042 104.799C41.31 104.958 41.4437 105.083 41.6025 105.077C41.7616 105.071 41.8856 104.937 41.8797 104.778Z" fill="#FAFAF9"/>
<path d="M37.2958 79.2962C38.8276 77.691 40.9606 76.5198 43.9814 76.5169C44.494 76.5169 45.0324 76.551 45.5978 76.6231C45.7555 76.6433 45.8998 76.5314 45.9198 76.3733C45.94 76.2152 45.8284 76.0709 45.6707 76.0507C45.0824 75.9757 44.5194 75.94 43.9814 75.94C40.8071 75.9371 38.4946 77.196 36.8788 78.8981C36.7691 79.0135 36.7736 79.1958 36.8885 79.306C37.0037 79.4156 37.186 79.4116 37.2958 79.2962Z" fill="#FAFAF9"/>
<path d="M34.9238 82.05C35.1826 81.6213 35.5568 81.1442 36.1015 80.663C36.2209 80.558 36.2324 80.3756 36.1271 80.2562C36.022 80.1362 35.84 80.1247 35.7207 80.2302C35.1322 80.7495 34.7189 81.2734 34.4309 81.7517C34.3485 81.8884 34.3924 82.0656 34.5285 82.1481C34.6646 82.23 34.8417 82.1861 34.9238 82.05Z" fill="#FAFAF9"/>
<path d="M50.9881 110.835C50.9881 110.896 50.9881 110.953 50.9825 111.015C50.9713 111.296 50.9319 111.564 50.864 111.82C50.7118 112.455 50.4074 113.029 49.9955 113.484C49.3805 114.164 48.5345 114.581 47.598 114.581H40.5585C38.9961 114.581 37.676 113.409 37.2926 111.82C37.2249 111.564 37.1855 111.296 37.1743 111.015C37.1686 110.953 37.1686 110.896 37.1686 110.835C37.1686 110.716 37.1743 110.604 37.1855 110.491L37.1967 110.392C37.2193 110.136 37.2757 109.893 37.3432 109.656C37.5068 109.095 37.789 108.596 38.1611 108.185C38.7758 107.505 39.6223 107.087 40.5585 107.087H47.598C49.093 107.087 50.3676 108.166 50.8077 109.656C50.8808 109.887 50.9375 110.136 50.96 110.392L50.9713 110.491C50.9825 110.604 50.9881 110.716 50.9881 110.835Z" fill="#8466AC"/>
<path d="M50.8077 109.656H37.3432C37.5068 109.095 37.789 108.596 38.1611 108.185C38.7758 107.505 39.6223 107.087 40.5585 107.087H47.598C49.093 107.087 50.3676 108.166 50.8077 109.656Z" fill="#47009A"/>
<path d="M47.598 114.581H40.5585C38.9961 114.581 37.676 113.409 37.2926 111.82H50.864C50.7118 112.455 50.4074 113.029 49.9955 113.484C49.3805 114.164 48.5345 114.581 47.598 114.581Z" fill="#47009A"/>
<path d="M50.9825 111.015H37.1743C37.1689 110.955 37.1686 110.901 37.1686 110.84C37.1686 110.838 37.1686 110.836 37.1686 110.835C37.1686 110.716 37.1743 110.604 37.1855 110.491L37.1967 110.392H50.96L50.9713 110.491C50.9825 110.604 50.9881 110.716 50.9881 110.835C50.9881 110.896 50.9881 110.953 50.9825 111.015Z" fill="#6930B5"/>
<path d="M44.0739 118.513C44.0739 119.014 43.6682 119.42 43.1683 119.42C42.6679 119.42 42.2625 119.014 42.2625 118.513C42.2625 118.012 42.6679 117.605 43.1683 117.605C43.6682 117.605 44.0739 118.012 44.0739 118.513Z" fill="#406FBF"/>
<path d="M42.8802 118.513V140.985H48.222V180.708H48.798V140.408H43.4562V118.513H42.8802Z" fill="#47009A"/>
<path d="M66.2348 45.6551C64.5299 45.6361 63.163 44.2358 63.182 42.528C63.2016 40.8202 64.5996 39.451 66.3045 39.4706C68.0043 39.4897 69.3688 40.8813 69.3573 42.584C69.3458 44.2918 67.9536 45.6672 66.2486 45.6557L66.2348 45.6551ZM75.0805 43.2965L75.0925 41.9637L74.2683 41.7174C74.2222 41.2679 74.1387 40.8231 74.0177 40.388L74.7061 39.8572L74.2049 38.6185L73.3507 38.7102C73.1393 38.3133 72.8951 37.9348 72.6204 37.5794L73.0437 36.827L72.1071 35.8768L71.352 36.2893C71.0029 36.0031 70.6303 35.7469 70.238 35.5231L70.3394 34.6697L69.1119 34.1487L68.574 34.8163C68.1414 34.6876 67.699 34.5953 67.2509 34.5405L67.0234 33.7131L65.6893 33.701L65.4469 34.5226C64.9981 34.5699 64.5541 34.6542 64.1192 34.7742L63.5864 34.0847L62.3491 34.5832L62.4407 35.4388C62.045 35.6506 61.6671 35.8952 61.3117 36.1704L60.5641 35.7429L59.612 36.6776L60.0238 37.4369C59.7375 37.7871 59.4829 38.1615 59.2623 38.5567L58.4104 38.4483L57.8869 39.6778L58.5567 40.2161C58.4254 40.6494 58.3327 41.0942 58.2814 41.5448L57.4517 41.7768L57.4398 43.1061L58.2636 43.3525C58.3091 43.8031 58.3932 44.2491 58.5147 44.6853L57.8264 45.2126L58.3275 46.4513L59.1817 46.3596C59.3908 46.7577 59.6356 47.1362 59.9121 47.4904L59.4853 48.2434L60.4218 49.1936L61.1764 48.784C61.526 49.069 61.8987 49.324 62.2909 49.5467L62.1861 50.4001L63.4136 50.9211L63.955 50.257C64.3887 50.3845 64.8323 50.4757 65.281 50.5299L65.5091 51.3601L66.8396 51.3728L67.0821 50.5472C67.532 50.5016 67.9772 50.4174 68.4127 50.2956L68.9391 50.9851L70.1758 50.4866L70.0883 49.6344C70.4828 49.4204 70.8601 49.1758 71.2172 48.9028L71.9649 49.3269L72.917 48.3922L72.5086 47.633C72.7937 47.2845 73.0472 46.9106 73.2666 46.5171L74.1185 46.6221L74.6421 45.3926L73.9757 44.8537C74.1041 44.421 74.1957 43.9773 74.2476 43.5284L75.0805 43.2965Z" fill="#47009A"/>
<path d="M218.949 66.1235C216.067 65.4288 214.293 62.5261 214.987 59.639C215.68 56.753 218.579 54.9754 221.46 55.6706C224.342 56.3653 226.116 59.268 225.422 62.1551L225.422 62.1557C224.724 65.0394 221.829 66.8135 218.949 66.1235ZM234.972 61.9942L233.069 60.0163C233.012 59.1792 232.872 58.3506 232.65 57.5417L233.665 55.4375L231.175 51.359L228.875 51.3192C228.257 50.7561 227.587 50.2547 226.873 49.822L225.977 47.2337L221.335 46.1207L219.36 48.0282C218.525 48.0807 217.696 48.2209 216.89 48.4465L214.79 47.4224L210.717 49.9247L210.678 52.2285C210.11 52.8424 209.609 53.5145 209.183 54.234L206.607 55.1318L205.488 59.7809L207.392 61.7588C207.444 62.6005 207.583 63.4348 207.806 64.2478L206.793 66.352L209.283 70.4305L211.581 70.4778C212.198 71.0404 212.869 71.5423 213.584 71.9751L214.472 74.5541L219.121 75.6763L221.088 73.7677C221.93 73.7146 222.766 73.5755 223.581 73.354L225.681 74.37L229.753 71.8752L229.8 69.5731C230.364 68.9558 230.864 68.2842 231.295 67.5676L233.871 66.6699L234.972 61.9942Z" fill="#270153"/>
<path d="M117.183 21.2427C114.049 21.1348 111.596 18.5027 111.704 15.3634C111.811 12.2241 114.439 9.76684 117.573 9.87416C120.707 9.98205 123.16 12.6142 123.053 15.7534V15.7552C122.94 18.8915 120.315 21.3459 117.183 21.2427ZM132.918 13.5581L130.525 11.9126C130.29 11.0575 129.969 10.2278 129.568 9.43625L130.174 7.04011L126.729 3.3412L124.337 3.78835C123.578 3.33601 122.777 2.95867 121.944 2.66211L120.469 0.170212L115.421 0.00230598L113.778 2.39845C112.923 2.63097 112.094 2.95177 111.306 3.35737L108.914 2.74232L105.221 6.2012L105.668 8.59735C105.21 9.35432 104.833 10.158 104.543 10.9941L102.063 12.4717L101.888 17.5282L104.28 19.1737C104.512 20.0357 104.833 20.8711 105.238 21.6662L104.631 24.0629L108.076 27.7612L110.469 27.3215C111.228 27.7739 112.029 28.1506 112.861 28.4484L114.329 30.9322L119.385 31.1082L121.019 28.712C121.882 28.4772 122.718 28.1558 123.516 27.7531L125.908 28.3601L129.6 24.9093L129.162 22.5131C129.615 21.7533 129.992 20.9507 130.286 20.1164L132.766 18.6388L132.918 13.5581Z" fill="#270153"/>
<path d="M125.35 15.5521H125.062C125.061 17.6713 124.205 19.5874 122.818 20.9767C121.431 22.3649 119.519 23.2234 117.403 23.2234C115.287 23.2234 113.374 22.3649 111.988 20.9767C110.601 19.5874 109.745 17.6713 109.744 15.5521C109.745 13.4329 110.601 11.5168 111.988 10.1275C113.374 8.73872 115.287 7.88078 117.403 7.88078C119.519 7.88078 121.431 8.73872 122.818 10.1275C124.205 11.5168 125.061 13.4329 125.062 15.5521H125.35H125.638C125.637 10.9964 121.951 7.30381 117.403 7.30381C112.855 7.30381 109.169 10.9964 109.168 15.5521C109.169 20.1072 112.855 23.7998 117.403 23.8004C121.951 23.7998 125.637 20.1072 125.638 15.5521H125.35Z" fill="white"/>
<path d="M181.716 43.8798C176.32 42.5667 173.008 37.1201 174.32 31.7151C175.631 26.3096 181.068 22.9926 186.465 24.3058C191.843 25.6155 195.155 31.0332 193.872 36.4266C192.585 41.838 187.163 45.1797 181.761 43.8902L181.716 43.8798ZM204.666 40.6944L205.427 37.5286L203.6 36.4878C203.737 35.3921 203.781 34.2872 203.732 33.1841L205.664 32.2996L205.15 29.0738L203.066 28.8217C202.781 27.7606 202.406 26.725 201.948 25.7262L203.369 24.1684L201.661 21.3898L199.638 21.957C198.962 21.0834 198.216 20.2676 197.406 19.5181L198.115 17.5426L195.479 15.6254L193.833 16.9189C192.873 16.3748 191.87 15.9109 190.834 15.533L190.745 13.4369L187.576 12.6736L186.547 14.4962C185.453 14.3618 184.35 14.3174 183.249 14.3635L182.358 12.4278L179.139 12.9338L178.887 15.0213C177.828 15.3074 176.795 15.6819 175.797 16.1406L174.251 14.7109L171.471 16.4112L172.036 18.4467C171.161 19.1223 170.349 19.8735 169.608 20.6928L167.638 19.9647L165.716 22.6043L167.016 24.2556C166.465 25.2156 166 26.2236 165.631 27.2673L163.528 27.3625L162.77 30.5208L164.596 31.5611C164.457 32.6596 164.412 33.7674 164.461 34.8734L162.533 35.7487L163.046 38.9751L165.13 39.2266C165.41 40.29 165.784 41.3256 166.248 42.3226L164.819 43.8787L166.526 46.6568L168.548 46.0988C169.224 46.9689 169.971 47.7824 170.782 48.529L170.063 50.5028L172.7 52.4195L174.353 51.1369C175.316 51.6798 176.323 52.1414 177.362 52.5164L177.448 54.62L180.61 55.3822L181.64 53.5509C182.737 53.6899 183.843 53.735 184.947 53.6853L185.821 55.6176L189.04 55.1116L189.298 53.0339C190.355 52.7408 191.389 52.367 192.389 51.9146L193.936 53.3363L196.716 51.6354L196.16 49.6022C197.031 48.9288 197.84 48.1799 198.578 47.3624L200.549 48.0819L202.471 45.4428L201.179 43.7933C201.724 42.8332 202.185 41.8282 202.555 40.7879L204.666 40.6944Z" fill="#406FBF"/>
<path d="M185.821 55.6176L184.947 53.6853C184.657 53.698 184.367 53.705 184.077 53.705C183.355 53.705 182.632 53.6646 181.914 53.5838C181.823 53.5734 181.731 53.5624 181.64 53.5509L181.556 53.7009L180.61 55.3822L177.448 54.62L177.362 52.5164C176.323 52.1414 175.316 51.6798 174.353 51.1369L172.7 52.4195L172.639 52.3751L170.063 50.5028L170.782 48.529C169.971 47.7824 169.224 46.9689 168.548 46.0988L166.526 46.6568L164.819 43.8787L166.248 42.3226C165.784 41.3256 165.41 40.29 165.13 39.2266L163.046 38.9751L162.533 35.7487L164.461 34.8734C164.449 34.5798 164.442 34.2855 164.442 33.9918C164.443 33.1795 164.494 32.3677 164.596 31.5611L162.77 30.5208L163.528 27.3625L165.631 27.2673C166 26.2236 166.465 25.2156 167.016 24.2556L165.716 22.6043L167.638 19.9647L169.608 20.6928C170.349 19.8735 171.161 19.1223 172.036 18.4467L171.471 16.4112L174.251 14.7109L175.797 16.1406C176.795 15.6819 177.828 15.3074 178.887 15.0213L179.139 12.9338L182.358 12.4278L183.249 14.3635C183.53 14.352 183.81 14.3462 184.091 14.3462C184.911 14.3462 185.732 14.3958 186.547 14.4962L187.576 12.6736L190.745 13.4369L190.834 15.533C191.87 15.9109 192.873 16.3748 193.833 16.9189L195.479 15.6254L198.115 17.5426L197.406 19.5181C198.216 20.2676 198.962 21.0834 199.638 21.957L201.661 21.3898L203.369 24.1684L201.948 25.7262C202.406 26.725 202.781 27.7606 203.066 28.8217L205.15 29.0738L205.664 32.2996L203.732 33.1841C203.746 33.4766 203.752 33.7703 203.752 34.0634C203.751 34.8734 203.701 35.6835 203.6 36.4878L205.427 37.5286L204.666 40.6944L202.555 40.7879C202.185 41.8282 201.724 42.8332 201.179 43.7933L202.471 45.4428L200.549 48.0819L198.578 47.3624C197.84 48.1799 197.031 48.9288 196.16 49.6022L196.716 51.6354L193.936 53.3363L192.389 51.9146C191.389 52.367 190.355 52.7408 189.298 53.0339L189.04 55.1116L185.821 55.6176ZM174.033 34.0957C174.03 38.6364 177.116 42.7605 181.716 43.8798L181.761 43.8902C182.544 44.0772 183.328 44.1666 184.099 44.1666C188.648 44.1666 192.772 41.0533 193.872 36.4266C194.058 35.6419 194.148 34.8567 194.148 34.0836C194.147 29.5434 191.061 25.4245 186.465 24.3058C185.667 24.1119 184.868 24.019 184.083 24.019C179.551 24.019 175.437 27.1087 174.32 31.7151C174.126 32.5119 174.034 33.3099 174.033 34.0957Z" fill="#47009A"/>
<path d="M197.224 34.0928H196.936C196.936 37.6451 195.5 40.8577 193.175 43.1857C190.852 45.5132 187.644 46.9522 184.098 46.9522C180.552 46.9522 177.344 45.5132 175.02 43.1857C172.696 40.8577 171.26 37.6451 171.26 34.0928C171.26 30.541 172.696 27.3279 175.02 24.9998C177.344 22.6724 180.552 21.2334 184.098 21.2334C187.644 21.2334 190.852 22.6724 193.175 24.9998C195.5 27.3279 196.936 30.541 196.936 34.0928H197.224H197.512C197.512 26.6724 191.507 20.6565 184.098 20.6565C176.69 20.6565 170.684 26.6724 170.684 34.0928C170.684 41.5137 176.69 47.5291 184.098 47.5291C191.507 47.5291 197.512 41.5137 197.512 34.0928H197.224Z" fill="white"/>
<path d="M253.939 68.2502L250.632 68.2335L248.743 70.9527L247.738 67.7967L244.572 66.8372L247.258 64.9044L247.19 61.5926L249.856 63.5531L252.979 62.4661L251.941 65.6106L253.939 68.2502Z" fill="#47009A"/>
<path d="M256.364 80.0422L257.44 78.3211L256.634 76.4569L258.601 76.9502L260.122 75.6065L260.262 77.6328L262.007 78.6661L260.126 79.4254L259.684 81.4078L258.383 79.8506L256.364 80.0422Z" fill="#47009A"/>
<path d="M225.56 172.404L225.274 172.366L224.632 177.267L227.865 180.185L223.587 180.981L221.816 184.962L219.738 181.132L215.411 180.676L218.405 177.513L217.501 173.249L221.429 175.124L225.704 172.654L225.56 172.404L225.416 172.154L221.404 174.473L216.695 172.225L217.778 177.336L214.19 181.127L219.377 181.675L221.867 186.265L223.99 181.493L229.118 180.539L225.243 177.042L225.921 171.862L225.416 172.154L225.56 172.404Z" fill="#47009A"/>
<path d="M237.262 171.863L235.692 170.578L233.745 171.146L234.48 169.253L233.339 167.574L235.363 167.689L236.605 166.082L237.122 168.047L239.03 168.734L237.325 169.833L237.262 171.863Z" fill="#7444B4"/>
<path d="M223.923 165.781L222.353 164.496L220.406 165.064L221.14 163.171L220 161.491L222.023 161.606L223.265 160L223.783 161.964L225.69 162.651L223.985 163.75L223.923 165.781Z" fill="#7444B4"/>
<path d="M260.51 239.416C260.51 243.052 208.347 246 144 246C79.6527 246 27.4894 243.052 27.4894 239.416C27.4894 235.78 79.6527 232.833 144 232.833C208.347 232.833 260.51 235.78 260.51 239.416Z" fill="#F3F2F1"/>
<path d="M259.652 94.3353V141.616C259.652 145.522 256.491 148.684 252.596 148.684H163.573C159.679 148.684 156.518 145.522 156.518 141.616V94.3353C156.518 94.056 156.534 93.7768 156.568 93.505C156.976 89.9965 159.958 87.2681 163.573 87.2681H252.596C256.212 87.2681 259.193 89.9965 259.601 93.505C259.635 93.7768 259.652 94.056 259.652 94.3353Z" fill="white"/>
<path d="M259.652 94.3353H259.364V141.616C259.364 143.49 258.606 145.183 257.38 146.41C256.155 147.637 254.465 148.395 252.596 148.395H163.573C161.705 148.395 160.015 147.637 158.789 146.41C157.564 145.183 156.806 143.49 156.806 141.616V94.3353C156.806 94.0676 156.822 93.7993 156.853 93.5408L156.854 93.5385C157.245 90.1748 160.106 87.556 163.573 87.5565H252.596C256.064 87.556 258.924 90.1748 259.316 93.5385V93.5402C259.347 93.7999 259.364 94.0676 259.364 94.3353H259.652H259.94C259.94 94.0445 259.922 93.7537 259.888 93.4704V93.4722C259.462 89.8188 256.359 86.9807 252.596 86.9796H163.573C159.81 86.9807 156.707 89.8188 156.282 93.4722V93.4698C156.247 93.7537 156.23 94.0451 156.23 94.3353V141.616C156.23 145.681 159.52 148.972 163.573 148.972H252.596C256.649 148.972 259.94 145.681 259.94 141.616V94.3353H259.652Z" fill="#47009A"/>
<path d="M177.438 124.173C177.091 123.287 176.804 122.381 176.584 121.462C176.546 121.307 176.391 121.211 176.236 121.249C176.081 121.286 175.986 121.442 176.023 121.597C176.251 122.543 176.546 123.474 176.902 124.384C176.96 124.532 177.127 124.605 177.275 124.547C177.424 124.489 177.496 124.321 177.438 124.173ZM176.122 118.66C176.075 118.126 176.051 117.592 176.051 117.056C176.051 116.645 176.065 116.235 176.094 115.824C176.106 115.666 175.986 115.527 175.827 115.516C175.668 115.505 175.531 115.625 175.52 115.784C175.49 116.207 175.475 116.632 175.475 117.056C175.475 117.609 175.5 118.161 175.549 118.711C175.563 118.87 175.702 118.987 175.861 118.973C176.02 118.959 176.137 118.819 176.122 118.66ZM176.532 113.028C176.76 112.113 177.072 111.217 177.459 110.354C177.524 110.209 177.459 110.038 177.314 109.973C177.169 109.908 176.998 109.973 176.933 110.118C176.532 111.011 176.209 111.939 175.973 112.888C175.935 113.042 176.028 113.199 176.182 113.237C176.337 113.276 176.493 113.182 176.532 113.028ZM178.834 107.88C179.363 107.094 179.958 106.356 180.611 105.677C180.721 105.562 180.718 105.38 180.603 105.269C180.489 105.159 180.306 105.162 180.196 105.277C179.52 105.98 178.904 106.744 178.357 107.557C178.267 107.689 178.303 107.869 178.434 107.957C178.566 108.046 178.745 108.012 178.834 107.88ZM182.746 103.826C183.514 103.277 184.33 102.803 185.187 102.418C185.333 102.353 185.398 102.182 185.333 102.037C185.267 101.891 185.097 101.826 184.952 101.891C184.058 102.292 183.208 102.786 182.411 103.357C182.282 103.45 182.252 103.63 182.344 103.759C182.436 103.889 182.617 103.919 182.746 103.826ZM187.861 101.546L187.978 101.523C188.876 101.344 189.771 101.258 190.665 101.246C190.824 101.244 190.951 101.113 190.949 100.954C190.947 100.794 190.817 100.667 190.658 100.669C189.731 100.681 188.801 100.771 187.866 100.957L187.744 100.981C187.588 101.014 187.488 101.167 187.52 101.323C187.552 101.479 187.705 101.579 187.861 101.546ZM193.49 101.439C194.42 101.571 195.35 101.765 196.282 102.001C196.436 102.039 196.592 101.946 196.631 101.791C196.671 101.637 196.577 101.48 196.423 101.441C195.475 101.202 194.526 101.003 193.571 100.868C193.413 100.845 193.268 100.955 193.245 101.112C193.223 101.27 193.332 101.416 193.49 101.439ZM199.031 102.797C199.937 103.087 200.845 103.398 201.757 103.71C201.908 103.762 202.071 103.682 202.122 103.531C202.174 103.38 202.094 103.216 201.944 103.165C201.032 102.851 200.12 102.54 199.206 102.248C199.055 102.199 198.892 102.283 198.844 102.435C198.796 102.586 198.88 102.749 199.031 102.797ZM204.49 104.635C205.411 104.935 206.335 105.219 207.264 105.468C207.418 105.509 207.576 105.417 207.617 105.264C207.658 105.11 207.567 104.951 207.413 104.91C206.497 104.665 205.582 104.384 204.669 104.086C204.517 104.037 204.355 104.119 204.306 104.271C204.256 104.422 204.339 104.586 204.49 104.635ZM210.102 106.096C211.062 106.257 212.029 106.362 213.004 106.389C213.163 106.393 213.295 106.268 213.3 106.109C213.304 105.95 213.179 105.817 213.02 105.812C212.076 105.786 211.136 105.684 210.197 105.526C210.041 105.5 209.892 105.606 209.866 105.763C209.839 105.92 209.945 106.069 210.102 106.096ZM215.92 106.235C216.875 106.112 217.829 105.932 218.78 105.726C218.935 105.692 219.034 105.539 219 105.383C218.967 105.227 218.814 105.128 218.658 105.162C217.717 105.366 216.779 105.543 215.848 105.662C215.69 105.682 215.578 105.827 215.598 105.985C215.619 106.143 215.763 106.254 215.92 106.235ZM221.592 105.073C222.534 104.85 223.469 104.635 224.393 104.462C224.549 104.432 224.652 104.281 224.623 104.125C224.593 103.968 224.443 103.865 224.286 103.894C223.347 104.071 222.404 104.288 221.459 104.511C221.304 104.548 221.209 104.703 221.245 104.859C221.282 105.014 221.437 105.11 221.592 105.073ZM227.211 104.091C227.518 104.072 227.822 104.062 228.125 104.062C228.766 104.062 229.397 104.106 230.019 104.207C230.175 104.233 230.323 104.126 230.349 103.969C230.374 103.811 230.267 103.663 230.111 103.638C229.455 103.531 228.792 103.485 228.125 103.485C227.81 103.485 227.493 103.495 227.176 103.514C227.017 103.524 226.896 103.661 226.906 103.82C226.915 103.979 227.052 104.1 227.211 104.091ZM232.673 105.047L232.675 105.048C233.557 105.483 234.323 106.009 234.984 106.61C235.102 106.718 235.284 106.709 235.391 106.591C235.498 106.473 235.489 106.29 235.371 106.183C234.67 105.545 233.858 104.988 232.93 104.53L232.927 104.53C232.785 104.459 232.612 104.518 232.542 104.661C232.472 104.804 232.531 104.977 232.673 105.047ZM236.754 108.766C237.235 109.558 237.612 110.419 237.895 111.329C237.942 111.482 238.103 111.566 238.255 111.519C238.407 111.472 238.492 111.31 238.445 111.158C238.149 110.207 237.754 109.303 237.246 108.466C237.163 108.33 236.986 108.287 236.85 108.369C236.715 108.452 236.671 108.63 236.754 108.766ZM238.462 114.097C238.539 114.783 238.576 115.483 238.576 116.191C238.576 116.438 238.571 116.686 238.562 116.935C238.557 117.094 238.681 117.228 238.84 117.233C238.999 117.239 239.132 117.114 239.138 116.955C239.147 116.7 239.152 116.445 239.152 116.191C239.152 115.463 239.114 114.741 239.034 114.033C239.016 113.875 238.874 113.761 238.716 113.778C238.558 113.796 238.444 113.939 238.462 114.097ZM238.287 119.771C238.14 120.713 237.94 121.649 237.696 122.563C237.655 122.717 237.747 122.875 237.9 122.916C238.054 122.957 238.212 122.866 238.253 122.712C238.501 121.779 238.705 120.824 238.856 119.86C238.88 119.703 238.773 119.555 238.616 119.53C238.459 119.505 238.311 119.613 238.287 119.771ZM236.822 125.28C236.473 126.2 236.084 127.076 235.667 127.886C235.594 128.028 235.65 128.201 235.791 128.275C235.932 128.347 236.106 128.292 236.179 128.151C236.606 127.32 237.004 126.425 237.36 125.485C237.417 125.336 237.343 125.169 237.194 125.113C237.045 125.056 236.879 125.131 236.822 125.28ZM234.196 130.319C233.649 131.097 233.055 131.837 232.418 132.54C232.311 132.657 232.32 132.84 232.438 132.947C232.555 133.054 232.737 133.046 232.845 132.927C233.497 132.208 234.106 131.45 234.668 130.651C234.759 130.521 234.727 130.341 234.597 130.249C234.468 130.157 234.288 130.188 234.196 130.319ZM230.387 134.535C229.674 135.16 228.925 135.747 228.148 136.298C228.018 136.391 227.987 136.571 228.079 136.701C228.171 136.83 228.351 136.862 228.48 136.77C229.274 136.208 230.038 135.608 230.766 134.969C230.886 134.864 230.898 134.681 230.793 134.562C230.688 134.442 230.507 134.43 230.387 134.535ZM225.743 137.834C224.919 138.308 224.072 138.746 223.208 139.149C223.064 139.216 223.001 139.388 223.069 139.532C223.135 139.676 223.307 139.739 223.451 139.672C224.33 139.262 225.191 138.817 226.03 138.335C226.168 138.255 226.215 138.079 226.136 137.94C226.057 137.803 225.881 137.755 225.743 137.834ZM220.571 140.249C219.675 140.582 218.768 140.881 217.855 141.143C217.703 141.188 217.614 141.347 217.658 141.5C217.703 141.653 217.862 141.742 218.015 141.698C218.94 141.431 219.861 141.129 220.772 140.79C220.921 140.735 220.997 140.569 220.941 140.42C220.886 140.27 220.72 140.194 220.571 140.249ZM215.08 141.834C214.787 141.896 214.494 141.954 214.201 142.008C214.045 142.037 213.942 142.188 213.971 142.345C214 142.501 214.15 142.605 214.307 142.576C214.604 142.52 214.901 142.461 215.199 142.399C215.354 142.366 215.454 142.213 215.421 142.057C215.389 141.901 215.236 141.801 215.08 141.834Z" fill="#8466AC"/>
<path d="M211.656 141.815C211.607 142.124 211.318 142.334 211.01 142.284C210.702 142.235 210.492 141.945 210.541 141.637C210.59 141.328 210.88 141.118 211.188 141.168C211.496 141.217 211.706 141.507 211.656 141.815Z" fill="#47009A"/>
<path d="M179.364 127.789C179.315 128.097 179.025 128.308 178.716 128.259C178.409 128.209 178.199 127.92 178.248 127.611C178.297 127.303 178.587 127.092 178.895 127.141C179.202 127.191 179.412 127.481 179.364 127.789Z" fill="#47009A"/>
<path d="M259.601 93.505H156.568C156.976 89.9965 159.958 87.2681 163.573 87.2681H252.596C256.212 87.2681 259.193 89.9965 259.601 93.505Z" fill="#47009A"/>
<path d="M237.749 90.0808C237.749 90.7195 237.232 91.237 236.595 91.237C235.957 91.237 235.441 90.7195 235.441 90.0808C235.441 89.4421 235.957 88.9245 236.595 88.9245C237.232 88.9245 237.749 89.4421 237.749 90.0808Z" fill="white"/>
<path d="M243.625 90.0808C243.625 90.7195 243.108 91.237 242.471 91.237C241.833 91.237 241.316 90.7195 241.316 90.0808C241.316 89.4421 241.833 88.9245 242.471 88.9245C243.108 88.9245 243.625 89.4421 243.625 90.0808Z" fill="white"/>
<path d="M249.5 90.0808C249.5 90.7195 248.984 91.237 248.346 91.237C247.709 91.237 247.192 90.7195 247.192 90.0808C247.192 89.4421 247.709 88.9245 248.346 88.9245C248.984 88.9245 249.5 89.4421 249.5 90.0808Z" fill="white"/>
<path d="M255.785 112.993V112.776H245.548V95.8458H255.569V112.993H255.785H256.001V95.6294C256.001 95.5723 255.978 95.5169 255.938 95.4765C255.898 95.4361 255.842 95.4131 255.785 95.4131H245.332C245.275 95.4131 245.219 95.4361 245.18 95.4765C245.139 95.5169 245.116 95.5723 245.116 95.6294V112.993C245.116 113.05 245.139 113.105 245.18 113.145C245.219 113.186 245.275 113.209 245.332 113.209H255.785C255.842 113.209 255.898 113.186 255.938 113.145C255.978 113.105 256.001 113.05 256.001 112.993H255.785Z" fill="#406FBF"/>
<path d="M247 103H254V101H247V103Z" fill="#7444B4"/>
<path d="M247 99H254V97H247V99Z" fill="#8466AC"/>
<path d="M247 107H254V105H247V107Z" fill="#47009A"/>
<path d="M247 111H254V109H247V111Z" fill="#270153"/>
<path d="M68.5411 197.799L68.5872 178.458L84.8707 186.821L68.5411 197.799Z" fill="#406FBF"/>
<path d="M154.695 50.4001L84.8713 186.822L79.7069 184.173L73.652 181.061L68.5872 178.458L138.406 42.0376L144.003 44.9086L150.544 48.2665L154.695 50.4001Z" fill="#47009A"/>
<path d="M84.8713 186.822L84.8701 186.821L79.708 184.17L150.544 48.2665L154.695 50.4001L148.914 61.6953L121.85 114.573L106.709 144.157L100.355 156.569L99.311 158.61L92.7544 171.419L88.5381 179.658L87.4938 181.697L84.8713 186.822Z" fill="#7444B4"/>
<path d="M73.6531 181.059L68.5878 178.458L138.406 42.0376L144.003 44.9085L73.652 181.061" fill="#7444B4"/>
<path d="M73.4464 194.502L75.1156 193.38L79.897 190.165L73.4464 194.502Z" fill="#818485"/>
<path d="M68.5607 189.627L68.5855 178.457L68.5878 178.458L68.5872 178.458L68.5607 189.627Z" fill="#858889"/>
<path d="M75.1156 193.38L68.559 190.172L68.5595 190.093L68.5601 189.856L68.5607 189.627L68.5872 178.458L73.652 181.061L79.7069 184.173L84.8701 186.821L79.8969 190.165L75.115 193.38" fill="#7444B4"/>
<path d="M79.7069 184.173L73.652 181.061L79.708 184.17L79.7069 184.173Z" fill="#2251AA"/>
<path d="M68.54 197.801L68.559 190.172L68.5411 197.799L73.4458 194.502H73.4463L68.54 197.801Z" fill="#494B4D"/>
<path d="M73.4463 194.502H73.4457L75.115 193.38H75.1156L73.4463 194.502Z" fill="#47494B"/>
<path d="M68.5411 197.799L68.559 190.172L75.1156 193.38L73.4458 194.502L68.5411 197.799Z" fill="#270153"/>
<path d="M73.652 181.061L68.5872 178.458L73.6531 181.059L73.652 181.061Z" fill="#24427D"/>
<path d="M122.079 157.047C122.079 157.047 122.079 157.046 122.079 157.045C121.963 154.569 121.882 152.471 121.848 150.869C121.848 150.882 122.082 157.047 122.079 157.047Z" fill="#858889"/>
</g>
<defs>
<clipPath id="clip0_223_2394">
<rect width="288" height="246" fill="white"/>
</clipPath>
</defs>
</svg>
