<svg width="22" height="23" viewBox="0 0 22 23" fill="none" xmlns="http://www.w3.org/2000/svg">
<path d="M2 11.5C2 10.3181 2.23279 9.14778 2.68508 8.05585C3.13738 6.96392 3.80031 5.97177 4.63604 5.13604C5.47177 4.30031 6.46392 3.63738 7.55585 3.18508C8.64778 2.73279 9.8181 2.5 11 2.5C12.1819 2.5 13.3522 2.73279 14.4442 3.18508C15.5361 3.63738 16.5282 4.30031 17.364 5.13604C18.1997 5.97177 18.8626 6.96392 19.3149 8.05585C19.7672 9.14778 20 10.3181 20 11.5C20 13.8869 19.0518 16.1761 17.364 17.864C15.6761 19.5518 13.3869 20.5 11 20.5C8.61305 20.5 6.32387 19.5518 4.63604 17.864C2.94821 16.1761 2 13.8869 2 11.5ZM11 0.5C4.925 0.5 0 5.425 0 11.5C0 17.575 4.925 22.5 11 22.5C17.075 22.5 22 17.575 22 11.5C22 5.425 17.075 0.5 11 0.5ZM5.5 12.5H13.086L10.086 15.5L11.5 16.914L16.914 11.5L11.5 6.086L10.086 7.5L13.086 10.5H5.5V12.5Z" fill="#121212"/>
</svg>
