<svg width="16" height="16" viewBox="0 0 16 16" fill="none" xmlns="http://www.w3.org/2000/svg">
<path d="M1.99935 7.99999C1.99935 7.21206 2.15454 6.43184 2.45607 5.70389C2.7576 4.97594 3.19956 4.3145 3.75671 3.75735C4.31386 3.2002 4.9753 2.75824 5.70325 2.45671C6.4312 2.15518 7.21142 1.99999 7.99935 1.99999C8.78728 1.99999 9.5675 2.15518 10.2955 2.45671C11.0234 2.75824 11.6848 3.2002 12.242 3.75735C12.7991 4.3145 13.2411 4.97594 13.5426 5.70389C13.8442 6.43184 13.9993 7.21206 13.9993 7.99999C13.9993 9.59129 13.3672 11.1174 12.242 12.2426C11.1168 13.3678 9.59065 14 7.99935 14C6.40805 14 4.88193 13.3678 3.75671 12.2426C2.63149 11.1174 1.99935 9.59129 1.99935 7.99999ZM7.99935 0.666656C3.94935 0.666656 0.666016 3.94999 0.666016 7.99999C0.666016 12.05 3.94935 15.3333 7.99935 15.3333C12.0493 15.3333 15.3327 12.05 15.3327 7.99999C15.3327 3.94999 12.0493 0.666656 7.99935 0.666656ZM4.33268 8.66666H9.39002L7.39002 10.6667L8.33268 11.6093L11.942 7.99999L8.33268 4.39066L7.39002 5.33332L9.39002 7.33332H4.33268V8.66666Z" fill="#525556"/>
</svg>
