<svg width="16" height="16" viewBox="0 0 16 16" fill="none" xmlns="http://www.w3.org/2000/svg">
<g clip-path="url(#clip0_7687_8849)">
<path d="M6.82867 10.876L4 8.04665L4.94267 7.10399L6.82867 8.98932L10.5993 5.21799L11.5427 6.16132L6.82867 10.8747V10.876Z" fill="#28B446"/>
<path fill-rule="evenodd" clip-rule="evenodd" d="M0.666748 7.99999C0.666748 3.94999 3.95008 0.666656 8.00008 0.666656C12.0501 0.666656 15.3334 3.94999 15.3334 7.99999C15.3334 12.05 12.0501 15.3333 8.00008 15.3333C3.95008 15.3333 0.666748 12.05 0.666748 7.99999ZM8.00008 14C7.21215 14 6.43193 13.8448 5.70398 13.5433C4.97603 13.2417 4.31459 12.7998 3.75744 12.2426C3.20029 11.6855 2.75833 11.024 2.4568 10.2961C2.15528 9.56814 2.00008 8.78792 2.00008 7.99999C2.00008 7.21206 2.15528 6.43184 2.4568 5.70389C2.75833 4.97594 3.20029 4.3145 3.75744 3.75735C4.31459 3.2002 4.97603 2.75824 5.70398 2.45671C6.43193 2.15518 7.21215 1.99999 8.00008 1.99999C9.59138 1.99999 11.1175 2.63213 12.2427 3.75735C13.3679 4.88257 14.0001 6.40869 14.0001 7.99999C14.0001 9.59129 13.3679 11.1174 12.2427 12.2426C11.1175 13.3678 9.59138 14 8.00008 14Z" fill="#28B446"/>
</g>
<defs>
<clipPath id="clip0_7687_8849">
<rect width="16" height="16" fill="white"/>
</clipPath>
</defs>
</svg>
