<svg width="13" height="12" viewBox="0 0 13 12" fill="none" xmlns="http://www.w3.org/2000/svg">
<path d="M9 1.50003C9.13132 1.36871 9.28722 1.26454 9.4588 1.19347C9.63038 1.1224 9.81428 1.08582 10 1.08582C10.1857 1.08582 10.3696 1.1224 10.5412 1.19347C10.7128 1.26454 10.8687 1.36871 11 1.50003C11.1313 1.63135 11.2355 1.78725 11.3066 1.95883C11.3776 2.13041 11.4142 2.31431 11.4142 2.50003C11.4142 2.68575 11.3776 2.86964 11.3066 3.04123C11.2355 3.21281 11.1313 3.36871 11 3.50003L4.25 10.25L1.5 11L2.25 8.25003L9 1.50003Z" stroke="#2D3748" stroke-width="1.5" stroke-linecap="round" stroke-linejoin="round"/>
</svg>
