<svg width="30" height="25" viewBox="0 0 30 25" fill="none" xmlns="http://www.w3.org/2000/svg">
<path d="M18 21.9038H12V13.25H18V21.9038Z" stroke="white" stroke-width="1.5"/>
<path d="M23.8542 21.904H20.4375V18.7886H23.8542H26.4375V20.3463V21.904H23.8542Z" stroke="white" stroke-width="1.5"/>
<path d="M6.5 16.25H9.5625V20.0476V21.9039H6.5625H3.5625V19.1788V16.25L6.49999 16.25H6.5Z" stroke="white" stroke-width="1.5"/>
<path d="M14.2195 4.77867L14.9989 3.15673L15.7783 4.77867L15.9418 5.11879H16.2791L18.0064 5.3733L16.7095 6.65667L16.4883 6.87564L16.5399 7.18264L16.844 8.99144L15.291 8.15598L15.0053 8.0023L14.7203 8.15715L13.158 9.00592L13.4619 7.19869L13.5131 6.89373L13.2945 6.67502L11.9936 5.37355L13.7662 5.11238L14.0815 5.06593L14.2195 4.77867Z" stroke="white" stroke-width="1.2"/>
</svg>
