<svg width="24" height="24" viewBox="0 0 24 24" fill="none" xmlns="http://www.w3.org/2000/svg">
<path d="M3 19.75V12.55C3 12.0529 3.40294 11.65 3.9 11.65H6.56038C6.86567 11.65 7.15014 11.4952 7.31599 11.2389L11.9562 4.06763C11.9812 4.02913 12.031 4.01552 12.072 4.03602L14.0543 5.02713C14.4316 5.21578 14.6272 5.64116 14.5249 6.0504L13.6296 9.63172C13.4876 10.1997 13.9172 10.75 14.5027 10.75H20.1C20.5971 10.75 21 11.1529 21 11.65V13.7003C21 13.8318 20.9712 13.9618 20.9156 14.0809L18.0924 20.1306C17.9445 20.4475 17.6265 20.65 17.2768 20.65H3.9C3.40294 20.65 3 20.2471 3 19.75Z" fill="#3C3C3C" stroke="#3C3C3C" stroke-width="1.8"/>
<path d="M6.60059 11.6499V19.7499" stroke="#3C3C3C" stroke-width="1.8"/>
</svg>
