<svg width="411" height="130" viewBox="0 0 411 130" fill="none" xmlns="http://www.w3.org/2000/svg">
<path d="M82.7849 106.287C90.9419 106.287 94.5416 112.093 94.5416 117.274C94.5416 123.08 90.3092 128.895 82.3146 128.895H37.16C26.6516 128.895 18.1867 120.417 18.1867 109.892V108.633C8.14852 108.479 0 100.001 0 89.7925V39.2312C0 35.309 0.940543 32.166 2.97553 29.9651C4.85662 27.9269 7.36188 26.8221 10.1835 26.8221C15.3565 26.8221 20.6919 31.0613 20.6919 39.2312V106.287H82.7849ZM18.1867 39.2312C18.1867 32.637 14.1081 29.1772 10.1921 29.1772C8.15707 29.1772 6.27598 29.9651 4.86517 31.5323C3.30045 33.2622 2.35991 35.9256 2.35991 39.2227V89.7839C2.35991 98.7332 9.41398 105.961 18.1952 106.269V39.2312H18.1867ZM82.3146 126.386C89.0523 126.386 92.0364 121.676 92.0364 117.274C92.0364 113.189 89.2147 108.642 82.7849 108.642H20.6919V109.901C20.6919 119.013 28.0624 126.386 37.1514 126.386H82.306H82.3146Z" fill="white"/>
<path d="M327.198 89.9552C327.198 98.2793 322.965 108.796 315.749 111.785C313.714 112.727 311.67 113.352 309.635 113.986C307.6 118.85 304.462 122.935 300.384 124.665C291.602 128.75 277.964 128.75 264.797 128.75H234.691C227.483 128.75 221.677 123.097 221.677 116.341V38.6061C221.677 35.6258 222.934 32.637 225.123 30.4361C227.474 28.081 230.612 26.8221 233.904 26.8221H251.467C260.556 26.8221 269.97 26.668 279.059 26.8221H279.213C291.44 26.8221 314.021 26.8221 317.313 45.9796C318.254 52.4196 315.116 61.3689 310.413 64.666C315.586 66.8669 327.189 73.4611 327.189 89.9466L327.198 89.9552ZM324.846 89.9552C324.846 75.5079 315.278 69.3847 309.635 67.0296C308.695 66.7128 308.07 65.9335 308.07 65.1456C307.916 64.2035 308.387 63.2615 309.011 62.7905C312.927 59.9644 315.749 51.9572 314.97 46.4591C312.149 30.5988 295.057 29.3399 279.067 29.3399C269.816 29.1858 260.564 29.1858 251.475 29.1858C246.927 29.1858 242.378 29.3399 237.837 29.3399H233.921C231.254 29.3399 228.748 30.2819 226.867 32.166C225.14 33.8959 224.2 36.251 224.2 38.6061V116.341C224.2 121.839 228.902 126.395 234.708 126.395H253.835C257.443 126.24 261.043 126.24 264.814 126.24C277.674 126.395 290.995 126.395 299.306 122.472C302.444 121.213 304.949 118.233 306.677 114.619C299.939 115.878 292.406 115.878 283.941 115.878C280.649 115.878 277.041 115.724 273.433 115.878H253.365C246.935 115.878 241.608 110.697 241.608 104.42V48.3432C241.608 43.6331 245.524 39.7108 250.543 39.7108H268.106C280.966 39.7108 298.682 39.8649 301.974 58.8682C302.914 65.3083 299.776 74.2576 295.074 77.5547C300.247 79.7556 311.85 86.3498 311.85 102.835C311.85 105.507 311.379 108.333 310.593 111.159C312.004 110.688 313.414 110.217 314.671 109.592C320.939 107.083 324.863 97.3458 324.863 89.9638L324.846 89.9552ZM243.942 104.402C243.942 109.267 248.175 113.352 253.348 113.352C259.932 113.352 267.926 113.506 273.416 113.506C277.024 113.352 280.47 113.352 283.924 113.352C292.859 113.506 300.854 113.506 307.754 111.939C308.848 108.958 309.481 105.661 309.481 102.835C309.481 88.388 299.913 82.2648 294.27 79.9097C293.329 79.5929 292.705 78.8136 292.705 78.0257C292.551 77.0837 293.022 76.2958 293.646 75.6706C297.562 72.8445 300.384 64.8373 299.605 59.3393C296.784 43.4789 283.616 42.22 267.935 42.22C259.154 42.0659 256.965 42.0659 252.886 42.0659H250.535C246.927 42.0659 243.951 44.892 243.951 48.3432V104.402H243.942Z" fill="white"/>
<path d="M360.125 119.792C360.125 124.031 356.046 127.482 351.181 127.482C346.316 127.482 342.246 124.031 342.246 119.792C342.246 115.553 346.171 111.939 351.181 111.939C356.192 111.939 360.125 115.39 360.125 119.792Z" fill="white"/>
<path d="M360.125 119.792C360.125 115.39 356.047 111.939 351.182 111.939C346.316 111.939 342.246 115.39 342.246 119.792C342.246 124.194 346.171 127.482 351.182 127.482C356.192 127.482 360.125 124.031 360.125 119.792ZM362.631 119.792C362.631 125.444 357.458 130 351.182 130C344.906 130 339.741 125.444 339.741 119.792C339.741 114.14 344.914 109.584 351.182 109.584C357.449 109.584 362.631 114.14 362.631 119.792Z" fill="white"/>
<path d="M408.486 10.2082C408.486 14.4473 404.416 17.8986 399.551 17.8986C394.686 17.8986 390.616 14.4473 390.616 10.2082C390.616 5.96904 394.532 2.35507 399.551 2.35507C404.57 2.35507 408.486 5.80632 408.486 10.2082Z" fill="white"/>
<path d="M408.486 10.2082C408.486 5.80632 404.416 2.35507 399.551 2.35507C394.686 2.35507 390.616 5.80632 390.616 10.2082C390.616 14.61 394.532 17.8986 399.551 17.8986C404.57 17.8986 408.486 14.4473 408.486 10.2082ZM411 10.2082C411 15.8603 405.818 20.4163 399.551 20.4163C393.284 20.4163 388.102 15.8603 388.102 10.2082C388.102 4.55599 393.284 0 399.551 0C405.818 0 411 4.55599 411 10.2082Z" fill="white"/>
<path d="M215.094 112.427L206.8 89.8524L190.34 42.1087C186.749 31.8063 179.344 25.7003 171.675 26.0599C167.305 26.2655 164.253 29.4256 160.944 32.6884C157.883 29.1858 155.232 26.4282 149.563 25.9229C141.936 25.2378 135.122 31.8149 131.531 42.1173L115.08 89.8267L106.777 112.418C105.272 116.281 105.768 120.597 108.171 124.305C110.642 127.842 114.456 129.88 118.585 129.88C124.237 130.051 129.239 126.54 130.966 121.171L157.78 45.303C158.601 42.8366 159.679 38.7602 160.927 36.9361C162.175 38.7602 163.253 42.8452 164.082 45.3287L190.879 121.145C192.58 126.42 197.369 129.889 202.841 129.889C202.969 129.889 203.106 129.889 203.234 129.889C207.407 129.889 211.22 127.859 213.717 124.279C216.094 120.614 216.598 116.306 215.094 112.444V112.427ZM155.352 44.4552L128.53 120.34C127.119 124.708 123.254 127.431 118.62 127.302C115.302 127.302 112.25 125.667 110.292 122.866C108.368 119.903 107.957 116.435 109.163 113.335L117.482 90.7003L133.942 42.9651C137.165 33.7161 143.065 28.4921 149.581 28.4921C153.052 28.4921 156.541 31.6436 159.371 34.7523C157.746 37.1845 156.361 41.4407 155.352 44.4723V44.4552ZM211.588 122.823C209.596 125.667 206.552 127.302 203.191 127.302C198.634 127.457 194.727 124.707 193.307 120.306L166.502 44.4809C165.493 41.4407 164.108 37.1502 162.483 34.7352C165.253 31.6693 168.126 28.8346 171.632 28.6291C178.113 28.2352 184.68 33.7075 187.903 42.9565L204.371 90.7174L212.682 113.326V113.352C213.897 116.426 213.478 119.895 211.579 122.823H211.588Z" fill="white"/>
<path d="M402.766 27.3017C395.866 27.3017 388.495 34.6838 388.495 48.3432V120.417C388.495 126.54 392.411 129.366 396.336 129.366C403.236 129.366 410.606 121.984 410.606 108.325V36.251C410.606 30.1278 406.69 27.3017 402.766 27.3017ZM408.255 77.7517V108.333C408.255 121.213 401.355 127.02 396.336 127.02C392.89 127.02 390.693 124.511 390.693 120.426V78.0685L390.846 48.3518C390.846 35.4717 397.747 29.6653 402.766 29.6653C406.212 29.6653 408.409 32.1746 408.409 36.2596L408.255 77.7602V77.7517Z" fill="white"/>
</svg>
