<svg width="24" height="24" viewBox="0 0 24 24" fill="none" xmlns="http://www.w3.org/2000/svg">
<rect width="24" height="24" fill="white"/>
<path d="M9.38182 16.8483L2.52982 11.9283C2.36843 11.8329 2.23468 11.6971 2.14177 11.5343C2.04886 11.3715 2 11.1872 2 10.9998C2 10.8123 2.04886 10.6281 2.14177 10.4652C2.23468 10.3024 2.36843 10.1666 2.52982 10.0713L9.38182 5.14826C9.54516 5.05219 9.73101 5.00104 9.9205 5.00002C10.11 4.99899 10.2964 5.04812 10.4608 5.14241C10.6251 5.23671 10.7616 5.37281 10.8564 5.53691C10.9511 5.70101 11.0008 5.88726 11.0003 6.07676V7.99826C13.2503 7.99826 20.0003 7.99826 21.5003 19.9983C17.7503 13.2483 11.0003 13.9983 11.0003 13.9983V15.9198C11.0003 16.7598 10.0913 17.2668 9.38182 16.8498V16.8483Z" fill="#3C3C3C"/>
</svg>
