<svg width="19" height="18" viewBox="0 0 19 18" fill="none" xmlns="http://www.w3.org/2000/svg">
<path d="M13.0792 13.675C11.5722 14.8448 9.67599 15.3963 7.77665 15.2173C5.87731 15.0382 4.11758 14.1421 2.85567 12.7114C1.59375 11.2806 0.924495 9.4227 0.984138 7.51588C1.04378 5.60906 1.82784 3.79663 3.17671 2.44752C4.52581 1.09865 6.33824 0.314595 8.24507 0.254951C10.1519 0.195308 12.0098 0.86456 13.4405 2.12648C14.8713 3.3884 15.7674 5.14812 15.9464 7.04746C16.1255 8.9468 15.574 10.843 14.4042 12.35L18.2042 16.15C18.3276 16.2646 18.4178 16.4104 18.4653 16.5719C18.5129 16.7335 18.5159 16.9049 18.4742 17.068C18.4325 17.2312 18.3475 17.3801 18.2283 17.499C18.1091 17.6179 17.96 17.7025 17.7967 17.7438C17.6337 17.7855 17.4625 17.7826 17.3011 17.7353C17.1396 17.688 16.9939 17.5981 16.8792 17.475L13.0792 13.675ZM14.1042 7.75002C14.1153 7.00453 13.9781 6.26426 13.7005 5.57229C13.4229 4.88032 13.0105 4.25046 12.4872 3.71934C11.9639 3.18822 11.3403 2.76645 10.6525 2.47857C9.96479 2.19068 9.22666 2.04243 8.48108 2.04243C7.73551 2.04243 6.99737 2.19068 6.30962 2.47857C5.62186 2.76645 4.99822 3.18822 4.47496 3.71934C3.9517 4.25046 3.53928 4.88032 3.26168 5.57229C2.98408 6.26426 2.84684 7.00453 2.85796 7.75002C2.87998 9.22685 3.4821 10.6357 4.53424 11.6723C5.58639 12.7089 7.00409 13.2899 8.48108 13.2899C9.95807 13.2899 11.3758 12.7089 12.4279 11.6723C13.4801 10.6357 14.0822 9.22685 14.1042 7.75002Z" fill="#2D3748"/>
</svg>
