<svg width="14" height="12" viewBox="0 0 14 12" fill="none" xmlns="http://www.w3.org/2000/svg">
<path d="M3.33301 4.66663C3.86634 4.66663 4.33301 4.19996 4.33301 3.66663C4.33301 3.13329 3.86634 2.66663 3.33301 2.66663C2.79967 2.66663 2.33301 3.13329 2.33301 3.66663C2.33301 4.19996 2.79967 4.66663 3.33301 4.66663ZM4.99967 1.99996L9.66634 6.66663L6.33301 9.99996L1.66634 5.33329V1.99996H4.99967ZM4.99967 0.666626H1.66634C0.933008 0.666626 0.333008 1.26663 0.333008 1.99996V5.33329C0.333008 5.73329 0.466341 6.06663 0.733008 6.26663L5.39967 10.9333C5.59967 11.2 5.93301 11.3333 6.33301 11.3333C6.73301 11.3333 7.06634 11.2 7.26634 10.9333L10.5997 7.59996C10.8663 7.33329 10.9997 6.99996 10.9997 6.66663C10.9997 6.26663 10.8663 5.93329 10.5997 5.73329L5.93301 1.06663C5.73301 0.799959 5.39967 0.666626 4.99967 0.666626ZM7.99967 1.79996L8.66634 1.13329L13.2663 5.73329C13.533 5.99996 13.6663 6.33329 13.6663 6.66663C13.6663 6.99996 13.533 7.39996 13.2663 7.59996L9.66634 11.2L8.99967 10.5333L12.7997 6.66663L7.99967 1.79996Z" fill="#2D3748"/>
</svg>
